<svg width="240" height="182" viewBox="0 0 240 182" fill="none" xmlns="http://www.w3.org/2000/svg">
<path d="M90 181.5H87.5C83.1667 181.5 79 181.083 75 180.25C71 179.417 67.4167 177.917 64.25 175.75C61.25 173.583 58.75 170.583 56.75 166.75C54.9167 162.917 54 157.917 54 151.75V-2.74181e-06H58C62 -2.74181e-06 65.9167 0.499996 69.75 1.49999C73.5833 2.33333 77 3.91666 80 6.24999C83 8.41666 85.4167 11.4167 87.25 15.25C89.0833 19.0833 90 24 90 30V181.5ZM8.84756e-08 24.75C8.84756e-08 21.9167 0.5 19.0833 1.5 16.25C2.5 13.4167 4.08333 10.8333 6.25 8.49999C8.41667 6.16666 11.0833 4.33332 14.25 2.99999C17.4167 1.49999 21.1667 0.749988 25.5 0.749988C30 0.749988 33.8333 1.58332 37 3.24999C40.1667 4.74999 42.6667 6.66665 44.5 8.99999C46.5 11.1667 47.9167 13.5833 48.75 16.25C49.75 18.75 50.25 21 50.25 23C50.25 24.3333 50.1667 25.5833 50 26.75C50 27.75 49.75 28.9167 49.25 30.25C46.9167 28.25 44.25 27.25 41.25 27.25C38.75 27.25 36.6667 28.0833 35 29.75C33.3333 31.25 32.5 33.5833 32.5 36.75V49C31.1667 49.3333 29.5 49.5 27.5 49.5C25.1667 49.5 22.4167 49.25 19.25 48.75C16.0833 48.0833 13.0833 46.8333 10.25 45C7.41667 43.1667 5 40.6667 3 37.5C1 34.3333 8.84756e-08 30.0833 8.84756e-08 24.75ZM144.25 24.75C144.25 30.0833 143.25 34.3333 141.25 37.5C139.25 40.6667 136.833 43.1667 134 45C131.167 46.8333 128.167 48.0833 125 48.75C121.833 49.25 119.083 49.5 116.75 49.5C114.75 49.5 113.083 49.3333 111.75 49V37.5C111.75 34 110.917 31.4167 109.25 29.75C107.583 28.0833 105.5 27.25 103 27.25C99.8333 27.25 97.1667 28.25 95 30.25C94.5 28.9167 94.1667 27.75 94 26.75C94 25.5833 94 24.3333 94 23C94 21 94.4167 18.75 95.25 16.25C96.25 13.5833 97.6667 11.1667 99.5 8.99999C101.5 6.66665 104 4.74999 107 3.24999C110.167 1.58332 113.917 0.749988 118.25 0.749988C122.75 0.749988 126.583 1.49999 129.75 2.99999C133.083 4.49999 135.75 6.41666 137.75 8.74999C139.917 10.9167 141.5 13.5 142.5 16.5C143.667 19.3333 144.25 22.0833 144.25 24.75ZM156.729 54.5H159.479C168.145 54.5 175.395 56.8333 181.229 61.5C187.229 66.1667 190.229 73.5833 190.229 83.75V181.5H188.729C184.895 181.5 181.062 181 177.229 180C173.562 179 170.145 177.417 166.979 175.25C163.979 172.917 161.479 170 159.479 166.5C157.645 162.833 156.729 158.333 156.729 153V54.5ZM239.479 76.5C239.479 81.1667 238.562 84.9167 236.729 87.75C234.895 90.5833 232.645 92.8333 229.979 94.5C227.479 96 224.729 97 221.729 97.5C218.729 98 216.145 98.25 213.979 98.25C211.645 98.25 209.645 98.0833 207.979 97.75V88.75C207.979 84.9167 207.312 82.5 205.979 81.5C204.812 80.5 203.312 80 201.479 80C199.812 80 198.479 80.3333 197.479 81C196.645 81.6667 195.645 82.6667 194.479 84C193.979 82.6667 193.645 81.3333 193.479 80C193.479 78.5 193.479 77.0833 193.479 75.75C193.479 73.5833 193.812 71.25 194.479 68.75C195.312 66.25 196.562 64 198.229 62C200.062 59.8333 202.395 58.0833 205.229 56.75C208.062 55.25 211.645 54.5 215.979 54.5C223.979 54.5 229.895 56.6667 233.729 61C237.562 65.1667 239.479 70.3333 239.479 76.5Z" fill="white"/>
</svg>
